<svg width="313" height="104" viewBox="0 0 313 104" fill="none" xmlns="http://www.w3.org/2000/svg">
<rect width="1778" height="486" transform="translate(-647 -158)" fill="white"/>
<path d="M155.58 76.48C154.34 76.48 153.36 76.14 152.64 75.46C151.96 74.74 151.62 73.72 151.62 72.4V37.78C151.62 36.46 151.96 35.46 152.64 34.78C153.36 34.06 154.38 33.7 155.7 33.7H176.64C177.68 33.7 178.46 33.96 178.98 34.48C179.5 35 179.76 35.74 179.76 36.7C179.76 37.7 179.5 38.48 178.98 39.04C178.46 39.56 177.68 39.82 176.64 39.82H159.3V51.76H175.38C176.38 51.76 177.14 52.02 177.66 52.54C178.22 53.06 178.5 53.8 178.5 54.76C178.5 55.76 178.22 56.54 177.66 57.1C177.14 57.62 176.38 57.88 175.38 57.88H159.3V72.4C159.3 75.12 158.06 76.48 155.58 76.48ZM197.997 76.6C194.677 76.6 191.817 75.98 189.417 74.74C187.017 73.5 185.157 71.74 183.837 69.46C182.557 67.18 181.917 64.48 181.917 61.36C181.917 58.32 182.537 55.66 183.777 53.38C185.057 51.1 186.797 49.32 188.997 48.04C191.237 46.72 193.777 46.06 196.617 46.06C198.697 46.06 200.557 46.4 202.197 47.08C203.877 47.76 205.297 48.74 206.457 50.02C207.657 51.3 208.557 52.86 209.157 54.7C209.797 56.5 210.117 58.54 210.117 60.82C210.117 61.54 209.857 62.1 209.337 62.5C208.857 62.86 208.157 63.04 207.237 63.04H187.977V58.72H204.837L203.877 59.62C203.877 57.78 203.597 56.24 203.037 55C202.517 53.76 201.737 52.82 200.697 52.18C199.697 51.5 198.437 51.16 196.917 51.16C195.237 51.16 193.797 51.56 192.597 52.36C191.437 53.12 190.537 54.22 189.897 55.66C189.297 57.06 188.997 58.74 188.997 60.7V61.12C188.997 64.4 189.757 66.86 191.277 68.5C192.837 70.1 195.117 70.9 198.117 70.9C199.157 70.9 200.317 70.78 201.597 70.54C202.917 70.26 204.157 69.8 205.317 69.16C206.157 68.68 206.897 68.48 207.537 68.56C208.177 68.6 208.677 68.82 209.037 69.22C209.437 69.62 209.677 70.12 209.757 70.72C209.837 71.28 209.717 71.86 209.397 72.46C209.117 73.06 208.617 73.58 207.897 74.02C206.497 74.9 204.877 75.56 203.037 76C201.237 76.4 199.557 76.6 197.997 76.6ZM230.516 76.6C227.196 76.6 224.336 75.98 221.936 74.74C219.536 73.5 217.676 71.74 216.356 69.46C215.076 67.18 214.436 64.48 214.436 61.36C214.436 58.32 215.056 55.66 216.296 53.38C217.576 51.1 219.316 49.32 221.516 48.04C223.756 46.72 226.296 46.06 229.136 46.06C231.216 46.06 233.076 46.4 234.716 47.08C236.396 47.76 237.816 48.74 238.976 50.02C240.176 51.3 241.076 52.86 241.676 54.7C242.316 56.5 242.636 58.54 242.636 60.82C242.636 61.54 242.376 62.1 241.856 62.5C241.376 62.86 240.676 63.04 239.756 63.04H220.496V58.72H237.356L236.396 59.62C236.396 57.78 236.116 56.24 235.556 55C235.036 53.76 234.256 52.82 233.216 52.18C232.216 51.5 230.956 51.16 229.436 51.16C227.756 51.16 226.316 51.56 225.116 52.36C223.956 53.12 223.056 54.22 222.416 55.66C221.816 57.06 221.516 58.74 221.516 60.7V61.12C221.516 64.4 222.276 66.86 223.796 68.5C225.356 70.1 227.636 70.9 230.636 70.9C231.676 70.9 232.836 70.78 234.116 70.54C235.436 70.26 236.676 69.8 237.836 69.16C238.676 68.68 239.416 68.48 240.056 68.56C240.696 68.6 241.196 68.82 241.556 69.22C241.956 69.62 242.196 70.12 242.276 70.72C242.356 71.28 242.236 71.86 241.916 72.46C241.636 73.06 241.136 73.58 240.416 74.02C239.016 74.9 237.396 75.56 235.556 76C233.756 76.4 232.076 76.6 230.516 76.6ZM262.256 87.4C260.096 87.4 257.996 87.2 255.956 86.8C253.956 86.4 252.136 85.78 250.496 84.94C249.736 84.54 249.216 84.06 248.936 83.5C248.696 82.94 248.616 82.36 248.696 81.76C248.816 81.2 249.056 80.7 249.416 80.26C249.816 79.82 250.296 79.52 250.856 79.36C251.416 79.2 251.996 79.28 252.596 79.6C254.356 80.48 256.016 81.04 257.576 81.28C259.176 81.56 260.536 81.7 261.656 81.7C264.336 81.7 266.336 81.04 267.656 79.72C269.016 78.44 269.696 76.52 269.696 73.96V68.56H270.236C269.636 70.6 268.376 72.24 266.456 73.48C264.576 74.68 262.436 75.28 260.036 75.28C257.396 75.28 255.096 74.68 253.136 73.48C251.176 72.24 249.656 70.52 248.576 68.32C247.496 66.12 246.956 63.56 246.956 60.64C246.956 58.44 247.256 56.46 247.856 54.7C248.496 52.9 249.376 51.36 250.496 50.08C251.656 48.8 253.036 47.82 254.636 47.14C256.276 46.42 258.076 46.06 260.036 46.06C262.516 46.06 264.676 46.68 266.516 47.92C268.396 49.12 269.616 50.72 270.176 52.72L269.576 54.22V49.96C269.576 48.72 269.896 47.78 270.536 47.14C271.216 46.5 272.136 46.18 273.296 46.18C274.496 46.18 275.416 46.5 276.056 47.14C276.696 47.78 277.016 48.72 277.016 49.96V73.06C277.016 77.82 275.756 81.4 273.236 83.8C270.716 86.2 267.056 87.4 262.256 87.4ZM262.076 69.58C263.636 69.58 264.976 69.22 266.096 68.5C267.216 67.78 268.076 66.76 268.676 65.44C269.316 64.08 269.636 62.48 269.636 60.64C269.636 57.88 268.956 55.72 267.596 54.16C266.236 52.56 264.396 51.76 262.076 51.76C260.516 51.76 259.176 52.12 258.056 52.84C256.936 53.56 256.056 54.58 255.416 55.9C254.816 57.22 254.516 58.8 254.516 60.64C254.516 63.4 255.196 65.58 256.556 67.18C257.916 68.78 259.756 69.58 262.076 69.58ZM288.507 76.42C287.307 76.42 286.387 76.06 285.747 75.34C285.107 74.62 284.787 73.62 284.787 72.34V50.32C284.787 49 285.107 48 285.747 47.32C286.387 46.6 287.307 46.24 288.507 46.24C289.707 46.24 290.627 46.6 291.267 47.32C291.947 48 292.287 49 292.287 50.32V72.34C292.287 73.62 291.967 74.62 291.327 75.34C290.687 76.06 289.747 76.42 288.507 76.42ZM288.507 40.66C287.107 40.66 286.007 40.32 285.207 39.64C284.447 38.92 284.067 37.94 284.067 36.7C284.067 35.42 284.447 34.44 285.207 33.76C286.007 33.08 287.107 32.74 288.507 32.74C289.947 32.74 291.047 33.08 291.807 33.76C292.567 34.44 292.947 35.42 292.947 36.7C292.947 37.94 292.567 38.92 291.807 39.64C291.047 40.32 289.947 40.66 288.507 40.66Z" fill="#482FF7"/>
<rect x="32" y="30" width="86" height="16" rx="8" fill="#482FF7"/>
<rect x="41" y="46" width="86" height="16" rx="8" fill="#FFF98C"/>
<rect x="52" y="62" width="86" height="16" rx="8" fill="#FC5185"/>
</svg>
